<svg xmlns="http://www.w3.org/2000/svg" viewBox="0 0 500 500">
  <!-- Shield shape -->
  <path d="M250 30 C 380 30, 470 100, 470 250 C 470 380, 380 470, 250 470 C 120 470, 30 380, 30 250 C 30 100, 120 30, 250 30 Z" fill="#333" />
  <path d="M250 50 C 370 50, 450 110, 450 250 C 450 370, 370 450, 250 450 C 130 450, 50 370, 50 250 C 50 110, 130 50, 250 50 Z" fill="none" />
  
  <!-- Ghana flag colors -->
  <path d="M250 60 C 360 60, 440 120, 440 250 L 250 250 Z" fill="#ce1126" /> <!-- Red -->
  <path d="M250 60 C 140 60, 60 120, 60 250 L 250 250 Z" fill="#006b3f" /> <!-- Green -->
  <path d="M60 250 C 60 380, 140 440, 250 440 C 360 440, 440 380, 440 250 Z" fill="#fcd116" /> <!-- Yellow -->
  
  <!-- Pedestrian silhouette -->
  <g transform="translate(250, 320) scale(0.7)">
    <!-- Head -->
    <circle cx="0" cy="-50" r="15" fill="#000" />
    <!-- Body -->
    <path d="M0,-35 L0,10" stroke="#000" stroke-width="10" />
    <!-- Arms -->
    <path d="M0,-20 L-25,0" stroke="#000" stroke-width="8" />
    <path d="M0,-20 L25,-10" stroke="#000" stroke-width="8" />
    <!-- Legs -->
    <path d="M0,10 L-20,50" stroke="#000" stroke-width="10" />
    <path d="M0,10 L20,50" stroke="#000" stroke-width="10" />
  </g>
  
  <!-- Crosswalk lines -->
  <rect x="210" y="370" width="10" height="40" fill="#000" />
  <rect x="230" y="370" width="10" height="40" fill="#000" />
  <rect x="250" y="370" width="10" height="40" fill="#000" />
  <rect x="270" y="370" width="10" height="40" fill="#000" />
</svg>